<mxfile host="app.diagrams.net" modified="2021-05-11T09:18:31.893Z" agent="5.0 (Macintosh; Intel Mac OS X 10_15_7) AppleWebKit/537.36 (KHTML, like Gecko) Chrome/90.0.4430.93 Safari/537.36" etag="S6KnqLCGTfwvU0AmKt68" version="14.6.11" type="github">
  <diagram id="aPGEExWdl0b4FqF4iGwi" name="Page-1">
    <mxGraphModel dx="3817" dy="2612" grid="1" gridSize="10" guides="1" tooltips="1" connect="1" arrows="1" fold="1" page="1" pageScale="1" pageWidth="827" pageHeight="1169" background="none" math="0" shadow="0">
      <root>
        <mxCell id="0" />
        <mxCell id="1" parent="0" />
        <mxCell id="9J43sk1gVzlFjpenxunV-51" value="Floatinfg IP&amp;nbsp;" style="text;html=1;align=center;verticalAlign=middle;resizable=0;points=[];autosize=1;strokeColor=none;fontSize=14;fontColor=#1AA2F0;" vertex="1" parent="1">
          <mxGeometry x="-1080" y="-380" width="90" height="20" as="geometry" />
        </mxCell>
        <mxCell id="9J43sk1gVzlFjpenxunV-50" style="edgeStyle=orthogonalEdgeStyle;rounded=0;orthogonalLoop=1;jettySize=auto;html=1;entryX=0.5;entryY=1;entryDx=0;entryDy=0;fontSize=14;fontColor=#1AA2F0;" edge="1" parent="1" source="9J43sk1gVzlFjpenxunV-37" target="9J43sk1gVzlFjpenxunV-20">
          <mxGeometry relative="1" as="geometry" />
        </mxCell>
        <mxCell id="9J43sk1gVzlFjpenxunV-29" value="Public subnet&lt;br&gt;&lt;span style=&quot;color: rgb(22 , 22 , 22) ; font-family: &amp;#34;ibm plex sans&amp;#34; , &amp;#34;helvetica neue&amp;#34; , &amp;#34;arial&amp;#34; , sans-serif ; font-size: 14px ; letter-spacing: 0.16px ; background-color: rgb(229 , 229 , 229)&quot;&gt;10.240.65.0/27&lt;/span&gt;" style="points=[[0,0],[0.25,0],[0.5,0],[0.75,0],[1,0],[1,0.25],[1,0.5],[1,0.75],[1,1],[0.75,1],[0.5,1],[0.25,1],[0,1],[0,0.75],[0,0.5],[0,0.25]];outlineConnect=0;gradientColor=none;html=1;whiteSpace=wrap;fontSize=12;fontStyle=0;shape=mxgraph.aws4.group;grIcon=mxgraph.aws4.group_security_group;grStroke=0;strokeColor=#248814;fillColor=#E9F3E6;verticalAlign=top;align=left;spacingLeft=30;fontColor=#248814;dashed=0;" vertex="1" parent="1">
          <mxGeometry x="-1305" y="-350" width="555" height="274" as="geometry" />
        </mxCell>
        <mxCell id="9J43sk1gVzlFjpenxunV-1" value="Internet" style="ellipse;shape=cloud;whiteSpace=wrap;html=1;" vertex="1" parent="1">
          <mxGeometry x="-880" y="-1030" width="180" height="150" as="geometry" />
        </mxCell>
        <mxCell id="9J43sk1gVzlFjpenxunV-2" value="&lt;span style=&quot;font-family: &amp;quot;ibm plex sans&amp;quot;, &amp;quot;helvetica neue&amp;quot;, arial, sans-serif; font-size: 14px; letter-spacing: 0.16px; background-color: rgb(229, 229, 229);&quot;&gt;Dallas 2&lt;/span&gt;" style="points=[[0,0],[0.25,0],[0.5,0],[0.75,0],[1,0],[1,0.25],[1,0.5],[1,0.75],[1,1],[0.75,1],[0.5,1],[0.25,1],[0,1],[0,0.75],[0,0.5],[0,0.25]];outlineConnect=0;gradientColor=none;html=1;whiteSpace=wrap;fontSize=12;fontStyle=0;shape=mxgraph.aws4.group;grIcon=mxgraph.aws4.group_region;strokeColor=#147EBA;fillColor=none;verticalAlign=top;align=left;spacingLeft=30;dashed=1;fontColor=#1AA2F0;" vertex="1" parent="1">
          <mxGeometry x="-1400" y="-700" width="1350" height="790" as="geometry" />
        </mxCell>
        <mxCell id="9J43sk1gVzlFjpenxunV-3" value="&lt;font color=&quot;#000000&quot;&gt;VPC&lt;/font&gt;" style="points=[[0,0],[0.25,0],[0.5,0],[0.75,0],[1,0],[1,0.25],[1,0.5],[1,0.75],[1,1],[0.75,1],[0.5,1],[0.25,1],[0,1],[0,0.75],[0,0.5],[0,0.25]];outlineConnect=0;gradientColor=none;html=1;whiteSpace=wrap;fontSize=12;fontStyle=0;shape=mxgraph.aws4.group;grIcon=mxgraph.aws4.group_vpc;strokeColor=#248814;fillColor=none;verticalAlign=top;align=left;spacingLeft=30;fontColor=#AAB7B8;dashed=0;" vertex="1" parent="1">
          <mxGeometry x="-1360" y="-570" width="1240" height="610" as="geometry" />
        </mxCell>
        <mxCell id="9J43sk1gVzlFjpenxunV-14" value="&lt;span style=&quot;color: rgba(0 , 0 , 0 , 0) ; font-family: monospace ; font-size: 0px&quot;&gt;IB&lt;/span&gt;" style="points=[[0,0],[0.25,0],[0.5,0],[0.75,0],[1,0],[1,0.25],[1,0.5],[1,0.75],[1,1],[0.75,1],[0.5,1],[0.25,1],[0,1],[0,0.75],[0,0.5],[0,0.25]];outlineConnect=0;gradientColor=none;html=1;whiteSpace=wrap;fontSize=12;fontStyle=0;shape=mxgraph.aws4.group;grIcon=mxgraph.aws4.group_aws_cloud;strokeColor=#232F3E;fillColor=none;verticalAlign=top;align=left;spacingLeft=30;fontColor=#232F3E;dashed=0;movable=1;resizable=1;rotatable=1;deletable=1;editable=1;connectable=1;" vertex="1" parent="1">
          <mxGeometry x="-1450" y="-780" width="1440" height="900" as="geometry" />
        </mxCell>
        <mxCell id="9J43sk1gVzlFjpenxunV-65" style="edgeStyle=orthogonalEdgeStyle;rounded=0;orthogonalLoop=1;jettySize=auto;html=1;entryX=0.8;entryY=0.8;entryDx=0;entryDy=0;entryPerimeter=0;fontSize=14;fontColor=#33FF33;" edge="1" parent="1" source="9J43sk1gVzlFjpenxunV-20" target="9J43sk1gVzlFjpenxunV-1">
          <mxGeometry relative="1" as="geometry" />
        </mxCell>
        <mxCell id="9J43sk1gVzlFjpenxunV-20" value="Public Gateway&lt;br&gt;&lt;button type=&quot;button&quot; class=&quot;bx--tooltip__trigger bx--tooltip--a11y bx--tooltip__trigger--definition bx--tooltip--top bx--tooltip--align-center&quot; style=&quot;font-family: inherit ; border-radius: 0px ; margin: 0px ; vertical-align: baseline ; padding: 0px ; background-image: none ; border-top: 0px ; border-right: 0px ; border-bottom: 0.0625rem dotted ; border-left: 0px ; appearance: none ; display: inline-flex ; align-items: center ; font-size: 0.875rem ; cursor: pointer ; position: relative ; transition: 0.11s ease 0s ; overflow: visible ; text-align: left ; text-overflow: ellipsis ; max-width: 20rem ; overflow-wrap: break-word&quot;&gt;52.116.195.234&lt;/button&gt;&lt;div class=&quot;bx--assistive-text&quot; id=&quot;definition-tooltip-256&quot; style=&quot;box-sizing: content-box ; margin: -1px ; padding: 0.5rem 1rem ; font-stretch: inherit ; font-family: &amp;#34;ibm plex sans&amp;#34; , &amp;#34;helvetica neue&amp;#34; , &amp;#34;arial&amp;#34; , sans-serif ; font-size: 14px ; vertical-align: baseline ; border: 0px ; position: absolute ; height: auto ; overflow: hidden ; visibility: inherit ; clip: rect(0px , 0px , 0px , 0px) ; z-index: 6000 ; display: flex ; align-items: center ; opacity: 1 ; word-break: break-word ; box-shadow: rgba(0 , 0 , 0 , 0.2) 0px 2px 6px ; min-width: 1.5rem ; max-width: 13rem ; text-align: left ; border-radius: 0.125rem ; transform: translate(-50% , -100%) ; letter-spacing: 0.16px ; top: -0.5625rem ; left: 54.1562px&quot;&gt;Copy IP address&lt;/div&gt;" style="aspect=fixed;perimeter=ellipsePerimeter;html=1;align=center;shadow=0;dashed=0;fontColor=#4277BB;labelBackgroundColor=#ffffff;fontSize=12;spacingTop=3;image;image=img/lib/ibm/vpc/PublicGateway.svg;" vertex="1" parent="1">
          <mxGeometry x="-483" y="-530" width="70" height="70" as="geometry" />
        </mxCell>
        <mxCell id="9J43sk1gVzlFjpenxunV-37" value="Private subnet&lt;br&gt;&lt;span style=&quot;color: rgb(22 , 22 , 22) ; font-family: &amp;#34;ibm plex sans&amp;#34; , &amp;#34;helvetica neue&amp;#34; , &amp;#34;arial&amp;#34; , sans-serif ; font-size: 14px ; letter-spacing: 0.16px ; background-color: rgb(229 , 229 , 229)&quot;&gt;10.240.64.0/24&lt;/span&gt;" style="points=[[0,0],[0.25,0],[0.5,0],[0.75,0],[1,0],[1,0.25],[1,0.5],[1,0.75],[1,1],[0.75,1],[0.5,1],[0.25,1],[0,1],[0,0.75],[0,0.5],[0,0.25]];outlineConnect=0;gradientColor=none;html=1;whiteSpace=wrap;fontSize=12;fontStyle=0;shape=mxgraph.aws4.group;grIcon=mxgraph.aws4.group_security_group;grStroke=0;strokeColor=#147EBA;fillColor=#E6F2F8;verticalAlign=top;align=left;spacingLeft=30;fontColor=#147EBA;dashed=0;" vertex="1" parent="1">
          <mxGeometry x="-720" y="-350" width="520" height="280" as="geometry" />
        </mxCell>
        <mxCell id="9J43sk1gVzlFjpenxunV-38" value="tanium-security-group-bastion" style="fillColor=none;strokeColor=#DD3522;verticalAlign=top;fontStyle=0;dashed=1;fontColor=#FF8000;fontSize=14;" vertex="1" parent="1">
          <mxGeometry x="-670" y="-290" width="420" height="250" as="geometry" />
        </mxCell>
        <mxCell id="9J43sk1gVzlFjpenxunV-43" value="Tanium Server VSI" style="aspect=fixed;perimeter=ellipsePerimeter;html=1;align=center;shadow=0;dashed=0;labelBackgroundColor=none;fontSize=12;spacingTop=3;image;image=img/lib/ibm/vpc/Instance.svg;fontStyle=1" vertex="1" parent="1">
          <mxGeometry x="-1090" y="-180" width="100" height="100" as="geometry" />
        </mxCell>
        <mxCell id="9J43sk1gVzlFjpenxunV-46" value="Windows VSI" style="aspect=fixed;perimeter=ellipsePerimeter;html=1;align=center;shadow=0;dashed=0;labelBackgroundColor=none;fontSize=12;spacingTop=3;image;image=img/lib/ibm/vpc/Instance.svg;fontStyle=1" vertex="1" parent="1">
          <mxGeometry x="-640" y="-176" width="100" height="100" as="geometry" />
        </mxCell>
        <mxCell id="9J43sk1gVzlFjpenxunV-47" value="RHEL VSI" style="aspect=fixed;perimeter=ellipsePerimeter;html=1;align=center;shadow=0;dashed=0;labelBackgroundColor=none;fontSize=12;spacingTop=3;image;image=img/lib/ibm/vpc/Instance.svg;fontStyle=1" vertex="1" parent="1">
          <mxGeometry x="-510" y="-176" width="100" height="100" as="geometry" />
        </mxCell>
        <mxCell id="9J43sk1gVzlFjpenxunV-48" value="Ubuntu VSI" style="aspect=fixed;perimeter=ellipsePerimeter;html=1;align=center;shadow=0;dashed=0;labelBackgroundColor=none;fontSize=12;spacingTop=3;image;image=img/lib/ibm/vpc/Instance.svg;fontStyle=1" vertex="1" parent="1">
          <mxGeometry x="-390" y="-176" width="100" height="100" as="geometry" />
        </mxCell>
        <mxCell id="9J43sk1gVzlFjpenxunV-66" style="edgeStyle=orthogonalEdgeStyle;rounded=0;orthogonalLoop=1;jettySize=auto;html=1;entryX=0.55;entryY=0.95;entryDx=0;entryDy=0;entryPerimeter=0;fontSize=14;fontColor=#33FF33;" edge="1" parent="1" source="9J43sk1gVzlFjpenxunV-51" target="9J43sk1gVzlFjpenxunV-1">
          <mxGeometry relative="1" as="geometry">
            <Array as="points">
              <mxPoint x="-1035" y="-340" />
              <mxPoint x="-781" y="-340" />
            </Array>
          </mxGeometry>
        </mxCell>
        <mxCell id="9J43sk1gVzlFjpenxunV-53" value="Text" style="text;html=1;strokeColor=none;fillColor=none;align=center;verticalAlign=middle;whiteSpace=wrap;rounded=0;dashed=1;fontSize=14;fontColor=#1AA2F0;" vertex="1" parent="1">
          <mxGeometry x="-640" y="-270" width="40" height="20" as="geometry" />
        </mxCell>
        <mxCell id="9J43sk1gVzlFjpenxunV-54" value="&lt;font color=&quot;#66cc00&quot;&gt;seceng-tanium-poc-vpc&lt;/font&gt;" style="text;html=1;strokeColor=none;fillColor=none;align=center;verticalAlign=middle;whiteSpace=wrap;rounded=0;dashed=1;fontSize=14;fontColor=#33FF33;" vertex="1" parent="1">
          <mxGeometry x="-1350" y="-550" width="190" height="20" as="geometry" />
        </mxCell>
        <mxCell id="9J43sk1gVzlFjpenxunV-55" value="IBM CLOUD" style="text;html=1;strokeColor=none;fillColor=none;align=center;verticalAlign=middle;whiteSpace=wrap;rounded=0;dashed=1;fontSize=14;" vertex="1" parent="1">
          <mxGeometry x="-1450" y="-770" width="145" height="20" as="geometry" />
        </mxCell>
        <mxCell id="9J43sk1gVzlFjpenxunV-61" value="" style="shape=flexArrow;endArrow=classic;startArrow=classic;html=1;fontSize=14;fontColor=#33FF33;exitX=0.5;exitY=0;exitDx=0;exitDy=0;entryX=0.459;entryY=1.067;entryDx=0;entryDy=0;entryPerimeter=0;fillColor=#19FF29;" edge="1" parent="1" source="9J43sk1gVzlFjpenxunV-43" target="9J43sk1gVzlFjpenxunV-51">
          <mxGeometry width="100" height="100" relative="1" as="geometry">
            <mxPoint x="-810" y="-320" as="sourcePoint" />
            <mxPoint x="-710" y="-420" as="targetPoint" />
          </mxGeometry>
        </mxCell>
        <mxCell id="9J43sk1gVzlFjpenxunV-27" value="tanium-security-group-bastion" style="fillColor=none;strokeColor=#DD3522;verticalAlign=top;fontStyle=0;dashed=1;fontColor=#FF8000;fontSize=14;" vertex="1" parent="1">
          <mxGeometry x="-1240" y="-280" width="420" height="250" as="geometry" />
        </mxCell>
      </root>
    </mxGraphModel>
  </diagram>
</mxfile>
